<svg width="38" height="39" viewBox="0 0 38 39" fill="none" xmlns="http://www.w3.org/2000/svg">
<g id="vuesax/bold/microphone-2">
<g id="microphone-2">
<path id="Vector" d="M29.9759 14.9455C29.3746 14.9455 28.8967 15.4364 28.8967 16.0539V18.5555C28.8967 24.1605 24.4567 28.7205 18.9992 28.7205C13.5417 28.7205 9.10169 24.1605 9.10169 18.5555V16.038C9.10169 15.4205 8.62378 14.9297 8.02253 14.9297C7.42128 14.9297 6.94336 15.4205 6.94336 16.038V18.5397C6.94336 24.9839 11.7688 30.288 17.92 30.858V34.2305C17.92 34.848 18.3979 35.3389 18.9992 35.3389C19.6004 35.3389 20.0784 34.848 20.0784 34.2305V30.858C26.2142 30.3039 31.055 24.9839 31.055 18.5397V16.038C31.0396 15.4364 30.5617 14.9455 29.9759 14.9455Z" fill="white"/>
<path id="Vector_2" d="M19.0026 3.66406C15.241 3.66406 12.1885 6.79906 12.1885 10.6624V18.7691C12.1885 22.6324 15.241 25.7674 19.0026 25.7674C22.7643 25.7674 25.8168 22.6324 25.8168 18.7691V10.6624C25.8168 6.79906 22.7643 3.66406 19.0026 3.66406ZM21.0222 14.6682C20.9143 15.0799 20.5597 15.3491 20.1589 15.3491C20.0818 15.3491 20.0047 15.3332 19.9276 15.3174C19.3264 15.1432 18.6943 15.1432 18.0931 15.3174C17.5997 15.4599 17.1218 15.1591 16.9985 14.6682C16.8597 14.1774 17.1526 13.6707 17.6306 13.5441C18.5401 13.2907 19.496 13.2907 20.4056 13.5441C20.8681 13.6707 21.1456 14.1774 21.0222 14.6682ZM21.8393 11.5966C21.7006 11.9766 21.3614 12.1982 20.9914 12.1982C20.8835 12.1982 20.791 12.1824 20.6831 12.1507C19.6039 11.7391 18.4014 11.7391 17.3222 12.1507C16.8597 12.3249 16.3356 12.0716 16.166 11.5966C15.9964 11.1216 16.2431 10.5832 16.7056 10.4249C18.1856 9.87073 19.8197 9.87073 21.2997 10.4249C21.7622 10.5991 22.0089 11.1216 21.8393 11.5966Z" fill="white"/>
</g>
</g>
</svg>
