<svg width="current" height="current" viewBox="0 0 40 40" fill="currnetcolor" xmlns="http://www.w3.org/2000/svg">
<path d="M33.5709 31.2166L28.1658 25.8115C29.8039 23.667 30.7023 21.0659 30.7027 18.3211C30.7027 15.0134 29.4144 11.9035 27.0752 9.56462C24.7363 7.22575 21.6267 5.9375 18.3186 5.9375C15.0109 5.9375 11.901 7.22575 9.56213 9.56462C4.73385 14.3933 4.73385 22.2498 9.56213 27.0776C11.901 29.4169 15.0109 30.7052 18.3186 30.7052C21.0634 30.7048 23.6645 29.8064 25.809 28.1682L31.2142 33.5734C31.5393 33.8989 31.9661 34.0617 32.3925 34.0617C32.819 34.0617 33.2458 33.8989 33.5709 33.5734C34.222 32.9228 34.222 31.8673 33.5709 31.2166ZM11.9189 24.7209C8.39026 21.1922 8.39067 15.4504 11.9189 11.9214C13.6283 10.2124 15.9012 9.27083 18.3186 9.27083C20.7365 9.27083 23.009 10.2124 24.7184 11.9214C26.4278 13.6308 27.3693 15.9037 27.3693 18.3211C27.3693 20.7389 26.4278 23.0115 24.7184 24.7209C23.009 26.4303 20.7365 27.3718 18.3186 27.3718C15.9012 27.3718 13.6283 26.4303 11.9189 24.7209Z" fill="currentcolor"/>
</svg>
