<svg width="37" height="37" viewBox="0 0 37 37" fill="none" xmlns="http://www.w3.org/2000/svg">
<g id="vuesax/bold/send-2">
<g id="send-2">
<path id="Vector" d="M24.7097 4.9386L11.1647 9.4386C2.05969 12.4836 2.05969 17.4486 11.1647 20.4786L15.1847 21.8136L16.5197 25.8336C19.5497 34.9386 24.5297 34.9386 27.5597 25.8336L32.0747 12.3036C34.0847 6.2286 30.7847 2.9136 24.7097 4.9386ZM25.1897 13.0086L19.4897 18.7386C19.2647 18.9636 18.9797 19.0686 18.6947 19.0686C18.4097 19.0686 18.1247 18.9636 17.8997 18.7386C17.4647 18.3036 17.4647 17.5836 17.8997 17.1486L23.5997 11.4186C24.0347 10.9836 24.7547 10.9836 25.1897 11.4186C25.6247 11.8536 25.6247 12.5736 25.1897 13.0086Z" fill="#FFB74D"/>
</g>
</g>
</svg>
