<svg viewBox="0 0 65 65" fill="none" xmlns="http://www.w3.org/2000/svg">
<g id="vuesax/outline/user-cirlce-add">
<g id="user-cirlce-add">
<path id="Vector" d="M31.0372 39.213C25.7288 39.213 21.3955 34.8797 21.3955 29.5713C21.3955 24.263 25.7288 19.9297 31.0372 19.9297C36.3455 19.9297 40.6788 24.263 40.6788 29.5713C40.6788 34.8797 36.3455 39.213 31.0372 39.213ZM31.0372 24.0193C27.9768 24.0193 25.458 26.511 25.458 29.5985C25.458 32.686 27.9497 35.1776 31.0372 35.1776C34.1247 35.1776 36.6163 32.686 36.6163 29.5985C36.6163 26.511 34.1247 24.0193 31.0372 24.0193Z" fill="#555555"/>
<path id="Vector_2" d="M45.0939 56.7376C43.9835 56.7376 43.0627 55.8168 43.0627 54.7064C43.0627 49.5064 37.6731 45.2812 31.0377 45.2812C24.4023 45.2812 19.0127 49.5064 19.0127 54.7064C19.0127 55.8168 18.0919 56.7376 16.9814 56.7376C15.871 56.7376 14.9502 55.8168 14.9502 54.7064C14.9502 47.2855 22.1544 41.2188 31.0377 41.2188C39.921 41.2188 47.1252 47.2584 47.1252 54.7064C47.1252 55.8168 46.2044 56.7376 45.0939 56.7376Z" fill="#555555"/>
<path id="Vector_3" d="M31.1462 61.6146C15.8441 61.6146 3.38574 49.1562 3.38574 33.8542C3.38574 18.5521 15.8441 6.09375 31.1462 6.09375C34.9107 6.09375 38.5399 6.82497 41.9524 8.26038C42.9274 8.66663 43.4149 9.74992 43.0899 10.752C42.792 11.6458 42.6566 12.5938 42.6566 13.5417C42.6566 15.1396 43.0899 16.7104 43.9295 18.0645C44.3628 18.8229 44.9316 19.4999 45.5816 20.0687C47.9378 22.2083 51.4316 22.8855 54.167 21.9105C55.1691 21.5313 56.3066 22.0459 56.7128 23.0479C58.1753 26.4875 58.9066 30.1438 58.9066 33.8813C58.9066 49.1563 46.4482 61.6146 31.1462 61.6146ZM31.1462 10.1562C18.092 10.1562 7.44824 20.7729 7.44824 33.8542C7.44824 46.9354 18.092 57.5521 31.1462 57.5521C44.2003 57.5521 54.8441 46.9354 54.8441 33.8542C54.8441 31.2542 54.4107 28.6812 53.5982 26.2166C49.8607 26.8666 45.7712 25.7021 42.9003 23.0751C41.9524 22.2626 41.1128 21.2604 40.4628 20.15C39.2712 18.2 38.6212 15.8979 38.6212 13.5417C38.6212 12.8104 38.6753 12.1063 38.8107 11.4021C36.3462 10.5626 33.7732 10.1562 31.1462 10.1562Z" fill="#555555"/>
<path id="Vector_4" d="M51.4583 26.4089C48.2625 26.4089 45.2292 25.2172 42.8729 23.0777C41.925 22.2652 41.0854 21.263 40.4354 20.1526C39.2438 18.2026 38.5938 15.9005 38.5938 13.5443C38.5938 12.163 38.8104 10.8089 39.2438 9.50888C39.8396 7.66721 40.8687 5.96094 42.25 4.57969C44.6875 2.08803 47.9646 0.679688 51.4854 0.679688C55.1687 0.679688 58.6625 2.25057 61.0458 4.9589C63.1583 7.31515 64.35 10.3484 64.35 13.5443C64.35 14.5734 64.2146 15.6026 63.9438 16.5776C63.6729 17.7963 63.1583 19.0693 62.4542 20.1797C60.8833 22.8339 58.3917 24.8109 55.4667 25.7318C54.2479 26.1922 52.8937 26.4089 51.4583 26.4089ZM51.4583 4.74219C49.0479 4.74219 46.8 5.69005 45.1479 7.3963C44.2 8.3713 43.5229 9.48169 43.1167 10.7546C42.8187 11.6484 42.6833 12.5964 42.6833 13.5443C42.6833 15.1422 43.1167 16.713 43.9562 18.0671C44.3896 18.8255 44.9583 19.5025 45.6083 20.0713C47.9646 22.2109 51.4583 22.8881 54.1938 21.9131C56.2521 21.2631 57.9313 19.9088 59.0146 18.0942C59.5021 17.3088 59.8271 16.4693 60.0167 15.6297C60.2063 14.9256 60.2875 14.2484 60.2875 13.5443C60.2875 11.3776 59.475 9.29223 58.0125 7.66723C56.3604 5.79848 53.9771 4.74219 51.4583 4.74219Z" fill="#555555"/>
<path id="Vector_5" d="M55.4934 15.5156H47.3955C46.2851 15.5156 45.3643 14.5948 45.3643 13.4844C45.3643 12.374 46.2851 11.4531 47.3955 11.4531H55.4934C56.6038 11.4531 57.5247 12.374 57.5247 13.4844C57.5247 14.5948 56.6309 15.5156 55.4934 15.5156Z" fill="#555555"/>
<path id="Vector_6" d="M51.458 19.6604C50.3476 19.6604 49.4268 18.7396 49.4268 17.6291V9.53125C49.4268 8.42083 50.3476 7.5 51.458 7.5C52.5684 7.5 53.4893 8.42083 53.4893 9.53125V17.6291C53.4893 18.7666 52.5684 19.6604 51.458 19.6604Z" fill="#555555"/>
</g>
</g>
</svg>
