<svg width="120" height="120" viewBox="0 0 120 120" fill="none" xmlns="http://www.w3.org/2000/svg">
<g id="vuesax/bold/voice-cricle">
<g id="voice-cricle">
<path id="Vector" d="M60 10C32.4 10 10 32.4 10 60C10 87.6 32.4 110 60 110C87.6 110 110 87.6 110 60C110 32.4 87.6 10 60 10ZM33.75 70.7C33.75 72.75 32.05 74.45 30 74.45C27.95 74.45 26.25 72.75 26.25 70.7V49.3C26.25 47.25 27.95 45.55 30 45.55C32.05 45.55 33.75 47.25 33.75 49.3V70.7ZM48.75 77.85C48.75 79.9 47.05 81.6 45 81.6C42.95 81.6 41.25 79.9 41.25 77.85V42.15C41.25 40.1 42.95 38.4 45 38.4C47.05 38.4 48.75 40.1 48.75 42.15V77.85ZM63.75 85C63.75 87.05 62.05 88.75 60 88.75C57.95 88.75 56.25 87.05 56.25 85V35C56.25 32.95 57.95 31.25 60 31.25C62.05 31.25 63.75 32.95 63.75 35V85ZM78.75 77.85C78.75 79.9 77.05 81.6 75 81.6C72.95 81.6 71.25 79.9 71.25 77.85V42.15C71.25 40.1 72.95 38.4 75 38.4C77.05 38.4 78.75 40.1 78.75 42.15V77.85ZM93.75 70.7C93.75 72.75 92.05 74.45 90 74.45C87.95 74.45 86.25 72.75 86.25 70.7V49.3C86.25 47.25 87.95 45.55 90 45.55C92.05 45.55 93.75 47.25 93.75 49.3V70.7Z" fill="#FFB74D"/>
</g>
</g>
</svg>
